<svg xmlns="http://www.w3.org/2000/svg" width="450.046" height="469.158" viewBox="0 0 450.046 469.158">
  <g id="Pitch" transform="translate(-130.479 -8.499)">
    <path id="Union_57" data-name="Union 57" d="M-303.994,509.058l73.881-73.792-91.433-91.572V336.67l94.947,95.086,55.439-55.373-60.024-60.092,3.512-3.507.245.245L-54.917,140.714l-.217-.218,3.512-3.507,60,60.07,58.371-58.3L-27.926,43.987H-20.9l91.168,91.261L124.459,81.12l2.89,4.1L-299.8,511.995Zm136.347-136.183L4.868,200.567-51.41,144.226-223.919,316.54Zm-153.9-121.917L-114.34,43.987h7.024L-321.546,257.981Zm134.933-63.567a7.305,7.305,0,0,1,7.305-7.305,7.3,7.3,0,0,1,7.3,7.305,7.3,7.3,0,0,1-7.3,7.3A7.3,7.3,0,0,1-186.612,187.391Z" transform="translate(452.524 -34.987)" fill="#0eb4a7" stroke="rgba(0,0,0,0)" stroke-width="1"/>
    <path id="Path_262" data-name="Path 262" d="M185.026,182.426c-9.553-28-8.195-62.794,25.426-96.415S276.8,51.22,306.866,60.678" transform="translate(-12.515 -6.067)" fill="none" stroke="#0eb4a7" stroke-miterlimit="10" stroke-width="5"/>
  </g>
</svg>
