<?xml version="1.0" encoding="utf-8"?>
<!-- Generator: Adobe Illustrator 24.0.3, SVG Export Plug-In . SVG Version: 6.00 Build 0)  -->
<svg version="1.1" id="Layer_1" xmlns="http://www.w3.org/2000/svg" xmlns:xlink="http://www.w3.org/1999/xlink" x="0px" y="0px"
	 viewBox="0 0 768 768" style="enable-background:new 0 0 768 768;" xml:space="preserve">
<style type="text/css">
	.st0{font-family:'Rajdhani-SemiBold';}
	.st1{font-size:41px;}
</style>
<path d="M375.2,329.7c44.7,0,81-36.3,81-81l0,0h-157c-44.7,0-81,36.3-81,81l0,0H375.2z"/>
<path d="M549.2,438.7c0,44.7-36.3,81-81,81v-188c0-44.7,36.3-81,81-81V438.7z"/>
<path d="M299.2,438.7c-44.7,0-81,36.3-81,81h157c44.7,0,81-36.3,81-81H299.2z"/>
<path d="M375.2,343.7h-157c0,44.7,36.3,81,81,81h157C456.2,380,420,343.7,375.2,343.7z"/>
<text transform="matrix(1 0 0 1 216 577.2794)" class="st0 st1">SAPIEN INTERACTIVE</text>
<text transform="matrix(1 0 0 1 375.0019 188.2813)" class="st0 st1">by</text>
</svg>
