<svg id="Layer_1" data-name="Layer 1" xmlns="http://www.w3.org/2000/svg" viewBox="0 0 768 768"><defs><style>.cls-1{fill:#fff;}</style></defs><rect x="-0.25" y="0.25" width="768" height="768"/><path class="cls-1" d="M375.25,329.75a81,81,0,0,0,81-81h-157a81,81,0,0,0-81,81Z"/><path class="cls-1" d="M549.25,438.75a81,81,0,0,1-81,81v-188a81,81,0,0,1,81-81Z"/><path class="cls-1" d="M299.25,438.75a81,81,0,0,0-81,81h157a81,81,0,0,0,81-81Z"/><path class="cls-1" d="M375.25,343.75h-157a81,81,0,0,0,81,81h157A81,81,0,0,0,375.25,343.75Z"/></svg>